<?xml version="1.0" encoding="UTF-8"?>
<svg xmlns="http://www.w3.org/2000/svg" xmlns:xlink="http://www.w3.org/1999/xlink" width="225pt" height="225pt" viewBox="0 0 225 225" version="1.1">
<g id="surface1">
<path style=" stroke:none;fill-rule:nonzero;fill:rgb(99.607843%,99.607843%,99.607843%);fill-opacity:1;" d="M 208.949219 77.742188 C 208.039062 70.902344 207.910156 59.121094 214.261719 55.164062 C 214.375 55.09375 214.460938 54.988281 214.558594 54.898438 C 219.753906 53.238281 223.347656 50.90625 220.527344 47.769531 L 143.910156 24.683594 L 19.847656 41.929688 C 19.847656 41.929688 5.640625 43.960938 6.910156 66.03125 C 7.601562 78.046875 11.367188 83.945312 14.664062 86.847656 L 4.484375 89.917969 C 1.65625 93.054688 5.25 95.386719 10.445312 97.042969 C 10.542969 97.136719 10.628906 97.242188 10.742188 97.3125 C 17.09375 101.273438 16.96875 113.050781 16.054688 119.894531 C -6.75 126.371094 1.4375 128.480469 1.4375 128.480469 L 6.4375 129.691406 C 2.917969 132.871094 -0.574219 138.902344 0.078125 150.339844 C 1.347656 172.40625 13.019531 173.929688 13.019531 173.929688 L 94.203125 200.316406 L 216.742188 170.636719 C 216.742188 170.636719 224.929688 168.523438 202.117188 162.046875 C 201.199219 155.214844 201.074219 143.4375 207.4375 139.46875 C 207.554688 139.398438 207.636719 139.292969 207.734375 139.203125 C 212.925781 137.542969 216.519531 135.210938 213.695312 132.074219 L 208.371094 130.464844 C 211.921875 128.324219 217.257812 122.726562 218.09375 108.183594 C 218.671875 98.183594 216.0625 92.324219 213.039062 88.875 L 223.570312 86.328125 C 223.570312 86.332031 231.757812 84.21875 208.949219 77.742188 Z M 106.453125 77.457031 L 127.058594 73.222656 L 196.695312 58.914062 L 207.070312 56.777344 C 203.757812 62.847656 203.894531 71.148438 204.445312 76.488281 C 204.5625 77.695312 204.703125 78.796875 204.835938 79.632812 L 193.480469 82.457031 L 105.585938 104.324219 Z M 17.933594 98.933594 L 28.308594 101.070312 L 95.1875 114.816406 L 101.027344 116.011719 L 118.550781 119.613281 L 119.414062 146.480469 L 29.078125 124.003906 L 20.171875 121.792969 C 20.300781 120.953125 20.441406 119.851562 20.566406 118.640625 C 21.113281 113.308594 21.253906 105 17.933594 98.933594 Z M 13.90625 64.972656 C 13.78125 59.101562 14.824219 54.855469 16.941406 52.695312 C 18.285156 51.316406 19.875 51.03125 20.964844 51.03125 C 21.539062 51.03125 21.953125 51.113281 21.980469 51.113281 L 75.4375 68.539062 L 102.105469 77.234375 L 101.230469 104.285156 L 26.410156 83.3125 L 22.464844 82.207031 C 22.320312 82.164062 22.121094 82.136719 21.96875 82.128906 C 21.660156 82.105469 14.265625 81.425781 13.90625 64.972656 Z M 94.394531 188.597656 L 15.632812 166.515625 C 15.488281 166.472656 15.292969 166.445312 15.140625 166.4375 C 14.828125 166.414062 7.425781 165.734375 7.066406 149.285156 C 6.941406 143.40625 7.992188 139.164062 10.101562 137.003906 C 11.453125 135.625 13.039062 135.339844 14.128906 135.339844 C 14.703125 135.339844 15.117188 135.417969 15.148438 135.417969 C 15.148438 135.417969 15.152344 135.417969 15.148438 135.417969 L 95.265625 161.542969 Z M 197.605469 160.792969 C 197.730469 162.003906 197.867188 163.105469 198.003906 163.945312 L 98.75 188.636719 L 99.617188 161.769531 L 120.835938 157.40625 L 123.972656 158.164062 L 135.714844 154.347656 L 189.859375 143.222656 L 200.238281 141.085938 C 196.917969 147.152344 197.058594 155.460938 197.605469 160.792969 Z M 203.074219 124.28125 C 202.894531 124.285156 202.710938 124.308594 202.542969 124.363281 L 195.054688 126.457031 L 123.78125 146.445312 L 122.910156 119.390625 L 146.292969 111.765625 L 202.917969 93.296875 C 202.925781 93.292969 205.894531 92.632812 208.078125 94.851562 C 210.1875 97.011719 211.234375 101.253906 211.113281 107.125 C 210.742188 123.578125 203.34375 124.261719 203.074219 124.28125 Z M 203.074219 124.28125 "/>
</g>
</svg>
