<?xml version="1.0"?>
<svg xmlns="http://www.w3.org/2000/svg" height="512px" viewBox="0 0 64 64" width="512px"><g><path d="m60 16a3 3 0 0 0 -3-3h-3v23a5.006 5.006 0 0 1 -5 5h-27.532l-3.333 4h24.865a1 1 0 0 1 .769.359l8.231 9.879v-9.238a1 1 0 0 1 1-1h4a3 3 0 0 0 3-3z" data-original="#000000" class="active-path" data-old_color="#000000" fill="#FCFCFC"/><path d="m20.232 39.359a1 1 0 0 1 .768-.359h28a3 3 0 0 0 3-3v-26a3 3 0 0 0 -3-3h-42a3 3 0 0 0 -3 3v26a3 3 0 0 0 3 3h4a1 1 0 0 1 1 1v9.238zm-6.232-26.359a1 1 0 0 1 1-1h11a2.981 2.981 0 0 1 2 .78 2.981 2.981 0 0 1 2-.78h11a1 1 0 0 1 1 1v20a1 1 0 0 1 -1 1h-26a1 1 0 0 1 -1-1z" data-original="#000000" class="active-path" data-old_color="#000000" fill="#FCFCFC"/><path d="m40 30h-10a1 1 0 0 0 -1 1v1h11z" data-original="#000000" class="active-path" data-old_color="#000000" fill="#FCFCFC"/><path d="m40 28v-14h-10a1 1 0 0 0 -1 1v13.184a2.966 2.966 0 0 1 1-.184zm-9-12h7v2h-7zm0 4h7v2h-7zm0 4h7v2h-7z" data-original="#000000" class="active-path" data-old_color="#000000" fill="#FCFCFC"/><path d="m27 28.184v-13.184a1 1 0 0 0 -1-1h-10v14h10a2.966 2.966 0 0 1 1 .184zm-2-2.184h-7v-2h7zm0-4h-7v-2h7zm0-4h-7v-2h7z" data-original="#000000" class="active-path" data-old_color="#000000" fill="#FCFCFC"/><path d="m27 31a1 1 0 0 0 -1-1h-10v2h11z" data-original="#000000" class="active-path" data-old_color="#000000" fill="#FCFCFC"/></g> </svg>
