<?xml version="1.0" encoding="UTF-8"?>
<svg xmlns="http://www.w3.org/2000/svg" xmlns:xlink="http://www.w3.org/1999/xlink" width="225pt" height="225pt" viewBox="0 0 225 225" version="1.1">
<g id="surface1">
<path style=" stroke:none;fill-rule:nonzero;fill:rgb(98.039216%,98.039216%,98.039216%);fill-opacity:1;" d="M 34.417969 26.550781 C 34.414062 26.550781 34.40625 26.550781 34.398438 26.550781 C 32.269531 26.550781 30.269531 27.382812 28.757812 28.890625 C 27.230469 30.414062 26.390625 32.441406 26.390625 34.605469 L 26.390625 155.335938 C 26.390625 159.761719 30.003906 163.375 34.449219 163.382812 C 53.191406 163.429688 84.589844 167.335938 106.25 190.003906 L 106.25 63.652344 C 106.25 62.152344 105.867188 60.742188 105.144531 59.578125 C 87.367188 30.945312 53.203125 26.597656 34.417969 26.550781 Z M 34.417969 26.550781 "/>
<path style=" stroke:none;fill-rule:nonzero;fill:rgb(98.039216%,98.039216%,98.039216%);fill-opacity:1;" d="M 198.613281 155.335938 L 198.613281 34.601562 C 198.613281 32.441406 197.769531 30.414062 196.242188 28.890625 C 194.730469 27.382812 192.726562 26.550781 190.601562 26.550781 C 190.59375 26.550781 190.589844 26.550781 190.582031 26.550781 C 171.800781 26.597656 137.636719 30.945312 119.855469 59.578125 C 119.132812 60.742188 118.75 62.152344 118.75 63.652344 L 118.75 190.003906 C 140.410156 167.335938 171.808594 163.429688 190.550781 163.382812 C 194.996094 163.371094 198.613281 159.761719 198.613281 155.335938 Z M 198.613281 155.335938 "/>
<path style=" stroke:none;fill-rule:nonzero;fill:rgb(98.039216%,98.039216%,98.039216%);fill-opacity:1;" d="M 216.949219 54.394531 L 211.113281 54.394531 L 211.113281 155.335938 C 211.113281 166.640625 201.902344 175.855469 190.582031 175.882812 C 174.683594 175.921875 148.472656 179.03125 129.910156 196.601562 C 162.015625 188.738281 195.859375 193.847656 215.148438 198.246094 C 217.554688 198.792969 220.042969 198.226562 221.972656 196.6875 C 223.898438 195.15625 225 192.859375 225 190.398438 L 225 62.445312 C 225 58.007812 221.386719 54.394531 216.949219 54.394531 Z M 216.949219 54.394531 "/>
<path style=" stroke:none;fill-rule:nonzero;fill:rgb(98.039216%,98.039216%,98.039216%);fill-opacity:1;" d="M 13.886719 155.335938 L 13.886719 54.394531 L 8.050781 54.394531 C 3.613281 54.394531 0 58.007812 0 62.445312 L 0 190.398438 C 0 192.859375 1.101562 195.152344 3.027344 196.6875 C 4.953125 198.222656 7.441406 198.792969 9.851562 198.242188 C 29.140625 193.847656 62.984375 188.738281 95.089844 196.597656 C 76.527344 179.03125 50.316406 175.921875 34.417969 175.882812 C 23.097656 175.855469 13.886719 166.640625 13.886719 155.335938 Z M 13.886719 155.335938 "/>
</g>
</svg>
