<?xml version="1.0" encoding="UTF-8"?>
<svg xmlns="http://www.w3.org/2000/svg" xmlns:xlink="http://www.w3.org/1999/xlink" width="225pt" height="225pt" viewBox="0 0 225 225" version="1.1">
<g id="surface1">
<path style=" stroke:none;fill-rule:nonzero;fill:rgb(100%,100%,100%);fill-opacity:1;" d="M 221.222656 102.425781 L 187.125 68.324219 L 187.125 28.933594 C 187.125 21.8125 181.351562 16.039062 174.21875 16.039062 C 167.101562 16.039062 161.332031 21.8125 161.332031 28.933594 L 161.332031 42.53125 L 135.941406 17.140625 C 123.386719 4.59375 101.5625 4.617188 89.039062 17.164062 L 3.773438 102.425781 C -1.257812 107.46875 -1.257812 115.628906 3.773438 120.664062 C 8.8125 125.703125 16.988281 125.703125 22.019531 120.664062 L 107.273438 35.398438 C 110.050781 32.636719 114.945312 32.636719 117.710938 35.390625 L 202.980469 120.664062 C 205.507812 123.183594 208.804688 124.4375 212.097656 124.4375 C 215.402344 124.4375 218.703125 123.183594 221.222656 120.664062 C 226.257812 115.628906 226.257812 107.46875 221.222656 102.425781 Z M 221.222656 102.425781 "/>
<path style=" stroke:none;fill-rule:nonzero;fill:rgb(100%,100%,100%);fill-opacity:1;" d="M 116.980469 59.878906 C 114.503906 57.402344 110.492188 57.402344 108.019531 59.878906 L 33.023438 134.851562 C 31.839844 136.035156 31.167969 137.652344 31.167969 139.339844 L 31.167969 194.023438 C 31.167969 206.855469 41.574219 217.257812 54.40625 217.257812 L 91.535156 217.257812 L 91.535156 159.753906 L 133.457031 159.753906 L 133.457031 217.257812 L 170.585938 217.257812 C 183.417969 217.257812 193.824219 206.855469 193.824219 194.023438 L 193.824219 139.339844 C 193.824219 137.652344 193.15625 136.035156 191.96875 134.851562 Z M 116.980469 59.878906 "/>
</g>
</svg>
