<?xml version="1.0" encoding="UTF-8"?>
<svg xmlns="http://www.w3.org/2000/svg" xmlns:xlink="http://www.w3.org/1999/xlink" width="225pt" height="225pt" viewBox="0 0 225 225" version="1.1">
<g id="surface1">
<path style=" stroke:none;fill-rule:nonzero;fill:rgb(100%,100%,100%);fill-opacity:1;" d="M 75.179688 182.496094 L 33.320312 182.496094 C 25.324219 182.496094 18.703125 176.210938 18.703125 168.210938 L 18.703125 38.460938 C 18.703125 30.460938 25.324219 24.226562 33.320312 24.226562 L 134.628906 24.226562 C 142.625 24.226562 149.152344 30.460938 149.152344 38.460938 L 149.152344 147.1875 L 167.863281 124.941406 L 167.863281 24.566406 C 167.863281 14.050781 159.546875 5.519531 149.046875 5.519531 L 18.15625 5.519531 C 8.0625 5.519531 0 13.710938 0 23.800781 L 0 182.617188 C 0 193.132812 8.410156 201.691406 18.9375 201.691406 L 92.4375 201.691406 L 83.75 194.148438 C 79.949219 190.847656 77.089844 186.808594 75.179688 182.496094 Z M 75.179688 182.496094 "/>
<path style=" stroke:none;fill-rule:nonzero;fill:rgb(100%,100%,100%);fill-opacity:1;" d="M 126.835938 48.207031 L 42.816406 48.207031 C 37.648438 48.207031 33.492188 52.402344 33.492188 57.5625 C 33.492188 62.710938 37.65625 66.90625 42.816406 66.90625 L 126.828125 66.90625 C 131.996094 66.90625 136.140625 62.710938 136.140625 57.5625 C 136.152344 52.410156 131.996094 48.207031 126.835938 48.207031 Z M 126.835938 48.207031 "/>
<path style=" stroke:none;fill-rule:nonzero;fill:rgb(100%,100%,100%);fill-opacity:1;" d="M 126.835938 79.378906 L 42.816406 79.378906 C 37.648438 79.378906 33.492188 83.566406 33.492188 88.734375 C 33.492188 93.871094 37.65625 98.085938 42.816406 98.085938 L 126.828125 98.085938 C 131.996094 98.085938 136.140625 93.871094 136.140625 88.734375 C 136.152344 83.566406 131.996094 79.378906 126.835938 79.378906 Z M 126.835938 79.378906 "/>
<path style=" stroke:none;fill-rule:nonzero;fill:rgb(100%,100%,100%);fill-opacity:1;" d="M 126.835938 110.558594 L 42.816406 110.558594 C 37.648438 110.558594 33.492188 114.519531 33.492188 119.683594 C 33.492188 124.828125 37.65625 128.78125 42.816406 128.78125 L 126.828125 128.78125 C 131.996094 128.78125 136.140625 124.808594 136.140625 119.683594 C 136.152344 114.519531 131.996094 110.558594 126.835938 110.558594 Z M 126.835938 110.558594 "/>
<path style=" stroke:none;fill-rule:nonzero;fill:rgb(100%,100%,100%);fill-opacity:1;" d="M 33.484375 149.410156 C 33.484375 154.566406 37.648438 158.511719 42.808594 158.511719 L 74.15625 158.511719 C 75.46875 155.15625 77.484375 151.261719 80.238281 148.019531 C 83.132812 144.660156 86.546875 142.199219 90.257812 140.269531 L 42.816406 140.269531 C 37.648438 140.289062 33.484375 144.265625 33.484375 149.410156 Z M 33.484375 149.410156 "/>
<path style=" stroke:none;fill-rule:nonzero;fill:rgb(100%,100%,100%);fill-opacity:1;" d="M 126.835938 140.289062 L 119.828125 140.289062 C 122.125 141.261719 124.316406 142.886719 126.324219 144.625 L 135.636719 152.59375 C 135.992188 151.636719 136.175781 150.609375 136.175781 149.492188 C 136.152344 144.371094 131.996094 140.289062 126.835938 140.289062 Z M 126.835938 140.289062 "/>
<path style=" stroke:none;fill-rule:nonzero;fill:rgb(100%,100%,100%);fill-opacity:1;" d="M 219.246094 115.300781 C 212.398438 109.425781 202.074219 110.261719 196.210938 117.144531 L 142.539062 180.0625 L 115.710938 157.015625 C 108.84375 151.152344 98.53125 151.925781 92.664062 158.773438 C 86.78125 165.636719 87.574219 175.933594 94.421875 181.808594 L 133.683594 215.527344 C 136.679688 218.066406 140.433594 219.480469 144.328125 219.480469 C 144.769531 219.480469 145.171875 219.464844 145.621094 219.421875 C 149.925781 219.089844 153.964844 217.039062 156.773438 213.738281 L 221.105469 138.332031 C 226.9375 131.46875 226.136719 121.175781 219.246094 115.300781 Z M 219.246094 115.300781 "/>
</g>
</svg>
