<svg id="Layer_35" enable-background="new 0 0 64 64" height="512" viewBox="0 0 64 64" width="512" xmlns="http://www.w3.org/2000/svg" xmlns:xlink="http://www.w3.org/1999/xlink"><linearGradient id="SVGID_1_" gradientUnits="userSpaceOnUse" x1="32.1" x2="32.1" y1="63" y2="1"><stop offset="0" stop-color="#9f2fff"/><stop offset="1" stop-color="#0bb1d3"/></linearGradient><path d="m52 30.333 6.8 9.067-1.6 1.2-4.2-5.6v23c0 2.757-2.243 5-5 5h-36c-2.757 0-5-2.243-5-5v-25h2v25c0 1.654 1.346 3 3 3h36c1.654 0 3-1.346 3-3v-23l-4.2 5.6-1.6-1.2zm11-21.091c0 1.4-.545 2.717-1.535 3.707l-8.465 8.465v6.586h-2v-4.586l-10.528 10.528-8.65 1.236 1.236-8.65 17.942-17.942v-2.586c0-1.654-1.346-3-3-3h-36c-1.654 0-3 1.346-3 3v20l4.2-5.599 1.6 1.199-6.8 9.067-6.8-9.067 1.6-1.2 4.2 5.6v-20c0-2.757 2.243-5 5-5h36c2.757 0 5 2.243 5 5v.586l1.051-1.051c.99-.99 2.306-1.535 3.707-1.535 2.89 0 5.242 2.352 5.242 5.242zm-23 22.344 16.586-16.586-1.586-1.586-16.586 16.586zm13.586-19.586-1.586-1.586-16.586 16.586 1.586 1.586zm-19.407 20.821 3.7-.528-3.172-3.172zm26.821-23.579c0-1.788-1.454-3.242-3.242-3.242-.866 0-1.681.337-2.293.949l-2.051 2.051 4.586 4.586 2.051-2.051c.612-.612.949-1.427.949-2.293zm-50 38.758c0-1.654 1.346-3 3-3h14c1.654 0 3 1.346 3 3v8c0 1.654-1.346 3-3 3h-14c-1.654 0-3-1.346-3-3zm2 8c0 .552.448 1 1 1h14c.552 0 1-.448 1-1v-8c0-.552-.448-1-1-1h-14c-.552 0-1 .448-1 1zm1-27h14c1.654 0 3 1.346 3 3v8c0 1.654-1.346 3-3 3h-14c-1.654 0-3-1.346-3-3v-8c0-1.654 1.346-3 3-3zm14 2h-14c-.552 0-1 .448-1 1v8c0 .552.448 1 1 1h14c.552 0 1-.448 1-1v-8c0-.552-.448-1-1-1zm5 28h16v-2h-16zm16-4v-2h-2v2zm-16 0h12v-2h-12zm0-4h16v-2h-16zm0-4h16v-2h-16zm0-4h10v-2h-10zm10-6h-10v2h10zm-32-32v2h2v-2zm4 0v2h2v-2zm4 0v2h2v-2zm-8 6h26v-2h-26zm26 4v-2h-2v2zm-26 0h22v-2h-22zm0 4h26v-2h-26zm8 2h-2v2h2zm4 2v-2h-2v2zm4 0v-2h-2v2z" fill="url(#SVGID_1_)"/></svg>