<?xml version="1.0"?>
<svg xmlns="http://www.w3.org/2000/svg" height="512px" viewBox="-50 0 512 512" width="512px" class=""><g><path d="m47.742188 61.304688h357.257812v386.769531h-357.257812zm0 0" fill="#fff4f1" data-original="#FFF4F1" class="" style="fill:#026A85" data-old_color="#fff4f1"/><path d="m382.039062 61.304688h22.960938v386.769531h-22.960938zm0 0" fill="#ecedef" data-original="#ECEDEF"/><path d="m121.648438 64.5c0-31.480469-25.519532-57-57-57-30.40625 0-55.246094 23.8125-56.90625 53.804688h-.242188v383.558593h114v-376.457031c.085938-1.292969.148438-2.59375.148438-3.90625zm0 0" fill="#1bacd6" data-original="#1BACD6" class="active-path" data-old_color="#1bacd6" style="fill:#026A85"/><path d="m64.648438 7.5c-3.933594 0-7.773438.40625-11.480469 1.164062 25.957031 5.328126 45.480469 28.300782 45.480469 55.835938 0 1.3125-.0625 2.613281-.148438 3.90625v376.457031h23v-376.457031c.089844-1.292969.148438-2.59375.148438-3.90625 0-31.480469-25.519532-57-57-57zm0 0" fill="#1481a1" data-original="#1481A1" class=""/><path d="m91.417969 447.390625c0 14.785156-11.984375 26.769531-26.769531 26.769531-14.785157 0-26.769532-11.984375-26.769532-26.769531s11.984375-26.769531 26.769532-26.769531c14.785156 0 26.769531 11.984375 26.769531 26.769531zm0 0" fill="#ecedef" data-original="#ECEDEF"/><path d="m113.03125 417.269531c-10.066406-16.136719-27.964844-26.875-48.382812-26.875-31.480469 0-57 25.519531-57 57 0 31.410157 25.410156 56.882813 56.792968 56.992188v.113281h340.714844v-87.230469zm0 0" fill="#65cee3" data-original="#65CEE3"/><path d="m382.15625 417.269531h23v87.230469h-23zm0 0" fill="#1bacd6" data-original="#1BACD6" class="active-path" data-old_color="#1bacd6" style="fill:#026A85"/><path d="m91.417969 447.390625c0 14.785156-11.984375 26.769531-26.769531 26.769531-14.785157 0-26.769532-11.984375-26.769532-26.769531s11.984375-26.769531 26.769532-26.769531c14.785156 0 26.769531 11.984375 26.769531 26.769531zm0 0" fill="#fff4f1" data-original="#FFF4F1" class="" style="fill:#026A85" data-old_color="#fff4f1"/><path d="m157.816406 94.46875h103.449219v136.90625h-103.449219zm0 0" fill="#f195d6" data-original="#F195D6" class="" data-old_color="#f195d6" style="fill:#026A85"/><path d="m237.265625 94.46875h24v136.90625h-24zm0 0" fill="#e480be" data-original="#E480BE" class="" data-old_color="#e480be" style="fill:#026A85"/><path d="m368.5 338.375v44.273438h-210.683594v-44.273438zm0 0" fill="#f195d6" data-original="#F195D6" class="" data-old_color="#f195d6" style="fill:#026A85"/><path d="m345.5 338.375h23v44.273438h-23zm0 0" fill="#e480be" data-original="#E480BE" class="" data-old_color="#e480be" style="fill:#026A85"/><g fill="#18191b"><path d="m412.65625 504.5v-87.230469c0-.527343-.054688-1.042969-.15625-1.539062v-354.425781c0-4.144532-3.359375-7.5-7.5-7.5h-175.886719c-4.144531 0-7.5 3.355468-7.5 7.5 0 4.140624 3.355469 7.5 7.5 7.5h168.386719v340.960937h-268.5v-340.960937h69.601562c4.144532 0 7.5-3.359376 7.5-7.5 0-4.144532-3.355468-7.5-7.5-7.5h-70.355468c-5.113282-30.492188-31.675782-53.804688-63.597656-53.804688-33.550782 0-61.398438 25.710938-64.253907 58.894531-.253906.757813-.394531 1.566407-.394531 2.410157v226.582031c0 4.140625 3.359375 7.5 7.5 7.5s7.5-3.359375 7.5-7.5v-224.6875c.125-.476563.203125-.972657.230469-1.480469 1.449219-26.199219 23.15625-46.71875 49.417969-46.71875 27.292968 0 49.5 22.207031 49.5 49.5 0 1.003906-.042969 2.082031-.132813 3.394531-.007813.171875-.015625.339844-.015625.511719v337.464844c-12.171875-14.527344-30.039062-22.980469-49.351562-22.980469-19.949219 0-37.808594 9.105469-49.648438 23.375v-83.613281c0-4.140625-3.359375-7.5-7.5-7.5s-7.5 3.359375-7.5 7.5v122.210937c0 .546875.0625 1.078125.171875 1.589844-.003906.3125-.023437.625-.023437.9375 0 34.976563 28.082031 63.617187 62.882812 64.476563.457031.085937.929688.132812 1.410156.132812h340.714844c4.144531 0 7.5-3.359375 7.5-7.5zm-15-37.839844h-333.007812c-10.625 0-19.269532-8.644531-19.269532-19.269531s8.644532-19.269531 19.269532-19.269531 19.269531 8.644531 19.269531 19.269531c0 3.695313 2.671875 6.757813 6.1875 7.378906 1.058593.566407 2.265625.890625 3.546875.890625h204.847656c4.140625 0 7.5-3.355468 7.5-7.5 0-4.140625-3.359375-7.5-7.5-7.5h-200.25c-3.136719-15.683594-17.007812-27.539062-33.601562-27.539062-18.894532 0-34.269532 15.375-34.269532 34.269531 0 18.898437 15.375 34.269531 34.269532 34.269531h333.007812v15.339844h-331.914062c-.414063-.074219-.839844-.113281-1.273438-.113281-27.195312-.097657-49.320312-22.300781-49.320312-49.496094 0-27.292969 22.207031-49.5 49.5-49.5 17.191406 0 32.898437 8.730469 42.019531 23.347656 1.371093 2.195313 3.777343 3.53125 6.363281 3.53125h284.625zm0 0" data-original="#000000" class="" style="fill:#000000" data-old_color="#000000"/><path d="m261.265625 86.96875h-103.449219c-4.140625 0-7.5 3.359375-7.5 7.5v136.90625c0 4.140625 3.359375 7.5 7.5 7.5h103.449219c4.144531 0 7.5-3.359375 7.5-7.5v-136.90625c0-4.140625-3.355469-7.5-7.5-7.5zm-7.5 136.90625h-88.449219v-121.90625h88.449219zm0 0" data-original="#000000" class="" style="fill:#000000" data-old_color="#000000"/><path d="m150.316406 382.648438c0 4.140624 3.359375 7.5 7.5 7.5h210.683594c4.140625 0 7.5-3.359376 7.5-7.5v-44.273438c0-4.144531-3.359375-7.5-7.5-7.5h-210.683594c-4.140625 0-7.5 3.355469-7.5 7.5zm15-36.773438h195.683594v29.273438h-195.683594zm0 0" data-original="#000000" class="" style="fill:#000000" data-old_color="#000000"/><path d="m150.316406 265.375c0 4.140625 3.359375 7.5 7.5 7.5h208.683594c4.140625 0 7.5-3.359375 7.5-7.5s-3.359375-7.5-7.5-7.5h-208.683594c-4.144531 0-7.5 3.355469-7.5 7.5zm0 0" data-original="#000000" class="" style="fill:#000000" data-old_color="#000000"/><path d="m157.816406 309.875h208.683594c4.140625 0 7.5-3.359375 7.5-7.5s-3.359375-7.5-7.5-7.5h-208.683594c-4.140625 0-7.5 3.359375-7.5 7.5s3.355469 7.5 7.5 7.5zm0 0" data-original="#000000" class="" style="fill:#000000" data-old_color="#000000"/><path d="m291.5 189.875h75c4.140625 0 7.5-3.359375 7.5-7.5 0-4.144531-3.359375-7.5-7.5-7.5h-75c-4.144531 0-7.5 3.355469-7.5 7.5 0 4.140625 3.355469 7.5 7.5 7.5zm0 0" data-original="#000000" class="" style="fill:#000000" data-old_color="#000000"/><path d="m291.5 226.875h75c4.140625 0 7.5-3.359375 7.5-7.5 0-4.144531-3.359375-7.5-7.5-7.5h-75c-4.144531 0-7.5 3.355469-7.5 7.5 0 4.140625 3.355469 7.5 7.5 7.5zm0 0" data-original="#000000" class="" style="fill:#000000" data-old_color="#000000"/><path d="m291.5 106.875h75c4.140625 0 7.5-3.359375 7.5-7.5 0-4.144531-3.359375-7.5-7.5-7.5h-75c-4.144531 0-7.5 3.355469-7.5 7.5 0 4.140625 3.355469 7.5 7.5 7.5zm0 0" data-original="#000000" class="" style="fill:#000000" data-old_color="#000000"/><path d="m291.5 143.875h75c4.140625 0 7.5-3.359375 7.5-7.5 0-4.144531-3.359375-7.5-7.5-7.5h-75c-4.144531 0-7.5 3.355469-7.5 7.5 0 4.140625 3.355469 7.5 7.5 7.5zm0 0" data-original="#000000" class="" style="fill:#000000" data-old_color="#000000"/></g></g> </svg>
