<?xml version="1.0"?>
<svg xmlns="http://www.w3.org/2000/svg" id="Layer_35" enable-background="new 0 0 64 64" height="512px" viewBox="0 0 64 64" width="512px"><g><path d="m28 49h2.671l-2.671-3.054z" data-original="#000000" class="active-path" data-old_color="#000000" fill="#026A85"/><path d="m19 14h8c1.103 0 2-.897 2-2v-2c0-1.103-.897-2-2-2h-8c-1.103 0-2 .897-2 2v2c0 1.103.897 2 2 2z" data-original="#000000" class="active-path" data-old_color="#000000" fill="#026A85"/><path d="m36 45.946-2.671 3.054h2.671z" data-original="#000000" class="active-path" data-old_color="#000000" fill="#026A85"/><path d="m43 24.351v-8.287c-7.084 2.533-14.479 3.855-22 3.933v4.354c0 7.023 4.406 13.247 11 15.592 6.594-2.345 11-8.569 11-15.592zm-17-.351c-.552 0-1-.448-1-1s.448-1 1-1 1 .448 1 1-.448 1-1 1zm6 12c-2.206 0-4-1.794-4-4h2c0 1.103.897 2 2 2s2-.897 2-2h2c0 2.206-1.794 4-4 4zm5-13c0-.552.448-1 1-1s1 .448 1 1-.448 1-1 1-1-.448-1-1z" data-original="#000000" class="active-path" data-old_color="#000000" fill="#026A85"/><path d="m31 10h2c0-2.206 1.794-4 4-4h3.98c-2.576-1.939-5.682-3-8.98-3s-6.404 1.061-8.979 3h3.979c2.206 0 4 1.794 4 4z" data-original="#000000" class="active-path" data-old_color="#000000" fill="#026A85"/><path d="m35 10v2c0 1.103.897 2 2 2h5.824 2.176c1.103 0 2-.897 2-2v-2c0-1.103-.897-2-2-2h-8c-1.103 0-2 .897-2 2z" data-original="#000000" class="active-path" data-old_color="#000000" fill="#026A85"/><path d="m35.84 43.093c-.451-.674-.724-1.462-.804-2.297-.864.45-1.772.837-2.719 1.152l-.317.106-.316-.105c-.947-.316-1.855-.702-2.719-1.152-.08.835-.353 1.623-.804 2.297l3.839 4.387z" data-original="#000000" class="active-path" data-old_color="#000000" fill="#026A85"/><path d="m47 18c0-.823-.075-1.639-.207-2.444-.542.275-1.145.444-1.793.444v5.101c.743.152 1.416.482 2 .924z" data-original="#000000" class="active-path" data-old_color="#000000" fill="#026A85"/><path d="m45 24.351c0 1.582-.207 3.126-.586 4.608 1.457-.205 2.586-1.447 2.586-2.959 0-1.302-.839-2.402-2-2.816z" data-original="#000000" class="active-path" data-old_color="#000000" fill="#026A85"/><circle cx="32" cy="56" r="1" data-original="#000000" class="active-path" data-old_color="#000000" fill="#026A85"/><path d="m32 51c-2.757 0-5 2.243-5 5s2.243 5 5 5 5-2.243 5-5-2.243-5-5-5zm0 8c-1.654 0-3-1.346-3-3s1.346-3 3-3 3 1.346 3 3-1.346 3-3 3z" data-original="#000000" class="active-path" data-old_color="#000000" fill="#026A85"/><path d="m27.111 51h-3.111c-.551 0-1 .448-1 1v8c0 .552.449 1 1 1h3.111c-1.301-1.272-2.111-3.042-2.111-5s.81-3.728 2.111-5z" data-original="#000000" class="active-path" data-old_color="#000000" fill="#026A85"/><path d="m40 51h-3.111c1.301 1.272 2.111 3.042 2.111 5s-.81 3.728-2.111 5h3.111c.551 0 1-.448 1-1v-8c0-.552-.449-1-1-1z" data-original="#000000" class="active-path" data-old_color="#000000" fill="#026A85"/><path d="m56.965 61c-.373-5.255-3.665-9.842-8.599-11.86l-10.259-4.197c-.037-.015-.07-.037-.107-.053v4.11h2c1.654 0 3 1.346 3 3v8c0 .352-.072.686-.184 1h4.184v-6h2v6z" data-original="#000000" class="active-path" data-old_color="#000000" fill="#026A85"/><path d="m24 49h2v-4.111c-.037.016-.069.038-.106.053l-10.26 4.197c-4.934 2.019-8.226 6.606-8.599 11.861h7.965v-6h2v6h4.184c-.112-.314-.184-.648-.184-1v-8c0-1.654 1.346-3 3-3z" data-original="#000000" class="active-path" data-old_color="#000000" fill="#026A85"/><path d="m19 18h1.295c5.496 0 10.924-.695 16.212-2.05-1.971-.246-3.507-1.913-3.507-3.95h-2c0 2.206-1.794 4-4 4h-8c-.648 0-1.251-.169-1.793-.444-.132.805-.207 1.622-.207 2.444v4.026c.584-.442 1.257-.773 2-.924z" data-original="#000000" class="active-path" data-old_color="#000000" fill="#026A85"/><path d="m19.586 28.958c-.379-1.482-.586-3.025-.586-4.607v-1.166c-1.161.414-2 1.514-2 2.816 0 1.511 1.129 2.753 2.586 2.957z" data-original="#000000" class="active-path" data-old_color="#000000" fill="#026A85"/></g> </svg>
