<?xml version="1.0"?>
<svg xmlns="http://www.w3.org/2000/svg" xmlns:xlink="http://www.w3.org/1999/xlink" version="1.1" id="Capa_1" x="0px" y="0px" width="512px" height="512px" viewBox="0 0 50 50" style="enable-background:new 0 0 50 50;" xml:space="preserve" class=""><g><g>
	<g>
		<path d="M33.473,20.092c0.571-0.819,1.133-1.603,1.68-2.354c1.242-1.74,2.504-3.444,3.774-5.104    c0.155-0.173,0.218-0.312,0.238-0.439H50v-0.682H0.117v0.682h35.388c-0.03,0.011-0.052,0.014-0.084,0.029    c-0.596,0.248-1.168,0.554-1.714,0.914L19.205,23.543H0.117v0.683h18.141L0.867,36.706c-0.517,0.365-0.716,0.674-0.603,0.938    c0.035,0.07,0.1,0.109,0.152,0.164H0v0.68h49.882v-0.68H39.467c0.479-0.137,0.98-0.348,1.524-0.691    c0.677-0.431,1.37-0.929,2.087-1.5c0.71-0.568,1.42-1.193,2.121-1.869c0.703-0.676,1.346-1.326,1.931-1.949    c0.584-0.623,1.083-1.191,1.496-1.713c0.417-0.518,0.717-0.907,0.897-1.17c0.207-0.312,0.322-0.598,0.353-0.854    c0.026-0.263-0.019-0.449-0.138-0.565c-0.117-0.117-0.299-0.117-0.547,0c-0.246,0.116-0.539,0.381-0.877,0.795    c-0.543,0.653-1.191,1.363-1.947,2.146c-0.751,0.776-1.496,1.507-2.238,2.183c-0.74,0.676-1.418,1.221-2.025,1.635    c-0.61,0.416-1.043,0.582-1.306,0.508c-0.208-0.051-0.276-0.254-0.213-0.604c0.063-0.354,0.345-0.914,0.835-1.693    c0.363-0.625,0.805-1.305,1.325-2.045s1.019-1.455,1.5-2.146c0.483-0.687,0.919-1.278,1.303-1.771    c0.392-0.491,0.642-0.807,0.743-0.934c0.284-0.366,0.396-0.67,0.331-0.918c-0.065-0.245-0.276-0.371-0.644-0.371H44.85    c-0.312,0-0.649,0.078-1.015,0.233c-0.362,0.157-0.688,0.379-0.976,0.665c-0.467-0.417-1.062-0.694-1.789-0.837    c-0.729-0.144-1.56-0.091-2.493,0.155c-0.935,0.247-1.948,0.706-3.038,1.383c-1.092,0.675-2.234,1.597-3.428,2.766    c-0.726,0.723-1.336,1.421-1.848,2.096c-0.242,0.239-0.49,0.5-0.725,0.729c-0.965,0.947-1.801,1.707-2.512,2.279    c-0.717,0.57-1.276,0.92-1.68,1.053c-0.401,0.128-0.565-0.033-0.504-0.486c0.063-0.457,0.379-1.227,0.934-2.32    c0.559-1.088,1.449-2.582,2.67-4.478c0.494-0.778,1.017-1.587,1.578-2.418c0.192-0.286,0.396-0.581,0.593-0.87H50v-0.683H31.088    c0.219-0.318,0.43-0.636,0.654-0.959C32.326,21.741,32.904,20.909,33.473,20.092z M3.558,37.661    c0.6-0.248,1.154-0.563,1.676-0.955l7.012-5.299l9.037,0.154c-1.014,1.979-1.469,3.564-1.364,4.773    c0.06,0.701,0.353,1.179,0.829,1.472H3.132C3.271,37.759,3.4,37.728,3.558,37.661z M32.561,32.284    c0.321-0.688,0.799-1.382,1.422-2.082c0.467-0.572,1.039-1.164,1.716-1.775c0.675-0.605,1.381-1.135,2.12-1.576    c0.738-0.441,1.481-0.739,2.222-0.895c0.741-0.16,1.411-0.066,2.007,0.271l-0.429,0.546c-0.364,0.469-0.837,1.053-1.423,1.752    c-0.584,0.703-1.209,1.409-1.869,2.126c-0.663,0.712-1.334,1.39-2.004,2.022c-0.68,0.637-1.301,1.123-1.873,1.461    c-0.805,0.521-1.396,0.742-1.771,0.664c-0.377-0.077-0.574-0.342-0.586-0.799C32.078,33.544,32.232,32.974,32.561,32.284z     M33.707,36.686c0.574-0.374,1.13-0.797,1.674-1.269c0.551-0.463,1.057-0.92,1.523-1.36c-0.234,0.601-0.372,1.155-0.41,1.677    c-0.04,0.518,0.025,0.958,0.193,1.324c0.156,0.338,0.426,0.58,0.783,0.75h-6.068c0.19-0.057,0.377-0.104,0.572-0.188    C32.561,37.374,33.139,37.063,33.707,36.686z M27.241,35.692c0.342-0.27,0.69-0.58,1.036-0.882c-0.023,0.14-0.09,0.3-0.101,0.435    c-0.081,0.844,0.078,1.516,0.47,2.008c0.194,0.246,0.431,0.433,0.713,0.555h-5.711c0.262-0.096,0.511-0.168,0.786-0.303    C25.32,37.075,26.256,36.474,27.241,35.692z M24.709,26.307c-0.492,0.646-0.94,1.267-1.341,1.851    c-0.407,0.584-0.774,1.147-1.113,1.692l-7.791-0.153l7.214-5.47h4.646C25.775,24.931,25.213,25.649,24.709,26.307z M22.578,23.543    l11.675-8.848c-0.495,0.44-1.114,1.099-1.869,1.969c-0.752,0.868-1.565,1.849-2.435,2.939c-0.872,1.092-1.76,2.221-2.668,3.389    c-0.152,0.195-0.279,0.359-0.428,0.551H22.578z" data-original="#000000" class="active-path" data-old_color="#000000" fill="#006699"/>
	</g>
</g></g> </svg>
